<svg width="169" height="32" viewBox="0 0 169 32" fill="none" xmlns="http://www.w3.org/2000/svg">
<g clip-path="url(#clip0_1_2)">
<rect width="169" height="32" fill="white"/>
<path d="M45.901 16.749H49.816C51.0147 16.749 51.962 16.43 52.658 15.792C53.3733 15.154 53.731 14.2647 53.731 13.124C53.731 11.906 53.383 10.9877 52.687 10.369C51.991 9.75033 51.0437 9.441 49.845 9.441H45.901L46.568 8.687V26H43.204V6.251H50.251C51.6623 6.251 52.8803 6.55067 53.905 7.15C54.949 7.73 55.761 8.542 56.341 9.586C56.921 10.6107 57.211 11.79 57.211 13.124C57.211 14.4387 56.921 15.618 56.341 16.662C55.761 17.6867 54.949 18.489 53.905 19.069C52.861 19.649 51.643 19.939 50.251 19.939H45.901V16.749ZM62.3193 26H58.9553V11.848H62.3193V26ZM58.5203 7.44C58.5203 6.82133 58.704 6.31867 59.0713 5.932C59.458 5.526 59.98 5.323 60.6373 5.323C61.256 5.323 61.7586 5.526 62.1453 5.932C62.532 6.31867 62.7253 6.82133 62.7253 7.44C62.7253 8.05867 62.532 8.56133 62.1453 8.948C61.7586 9.33467 61.256 9.528 60.6373 9.528C59.98 9.528 59.458 9.33467 59.0713 8.948C58.704 8.56133 58.5203 8.05867 58.5203 7.44ZM72.6791 26.319C71.4031 26.319 70.2914 26.0193 69.3441 25.42C68.4161 24.8207 67.6911 23.97 67.1691 22.868C66.6471 21.766 66.3861 20.461 66.3861 18.953C66.3861 17.445 66.6471 16.14 67.1691 15.038C67.7104 13.9167 68.4451 13.0563 69.3731 12.457C70.3204 11.8383 71.4224 11.529 72.6791 11.529C73.9938 11.529 75.1344 11.8383 76.1011 12.457C77.0871 13.0757 77.8508 13.9457 78.3921 15.067C78.9334 16.169 79.2041 17.4643 79.2041 18.953C79.2041 20.403 78.9334 21.6887 78.3921 22.81C77.8508 23.912 77.0871 24.7723 76.1011 25.391C75.1151 26.0097 73.9744 26.319 72.6791 26.319ZM65.2841 31.51V11.848H67.8071L68.6481 14.951H68.3581V22.52H68.6481V31.51H65.2841ZM72.1281 23.303C73.2108 23.303 74.0904 22.9067 74.7671 22.114C75.4438 21.302 75.7821 20.2483 75.7821 18.953C75.7821 17.6383 75.4438 16.575 74.7671 15.763C74.0904 14.951 73.2108 14.545 72.1281 14.545C71.0648 14.545 70.1851 14.951 69.4891 15.763C68.8124 16.5557 68.4741 17.6093 68.4741 18.924C68.4741 20.2387 68.8124 21.302 69.4891 22.114C70.1851 22.9067 71.0648 23.303 72.1281 23.303ZM86.909 26.29C85.517 26.29 84.299 25.9903 83.255 25.391C82.211 24.7723 81.3894 23.912 80.79 22.81C80.21 21.708 79.92 20.4223 79.92 18.953C79.92 17.4643 80.21 16.169 80.79 15.067C81.3894 13.9457 82.211 13.0757 83.255 12.457C84.299 11.8383 85.517 11.529 86.909 11.529C88.3204 11.529 89.548 11.848 90.592 12.486C91.6554 13.1047 92.477 13.9747 93.057 15.096C93.637 16.198 93.927 17.474 93.927 18.924C93.927 19.098 93.9174 19.272 93.898 19.446C93.898 19.62 93.8884 19.7747 93.869 19.91H82.878V17.213H91.375L90.679 18.75C90.679 17.416 90.3697 16.3237 89.751 15.473C89.1324 14.6223 88.1947 14.197 86.938 14.197C85.7974 14.197 84.8887 14.5547 84.212 15.27C83.5547 15.966 83.226 16.894 83.226 18.054V19.591C83.226 20.7897 83.5547 21.7467 84.212 22.462C84.8887 23.158 85.8167 23.506 86.996 23.506C88.0594 23.506 88.881 23.2837 89.461 22.839C90.0604 22.3943 90.5727 21.8433 90.998 21.186L93.405 22.636C92.767 23.8347 91.9164 24.7433 90.853 25.362C89.7897 25.9807 88.475 26.29 86.909 26.29ZM98.8029 26.145C98.2422 26.145 97.7299 26.0193 97.2659 25.768C96.8019 25.4973 96.4346 25.1107 96.1639 24.608C95.8932 24.086 95.7579 23.4287 95.7579 22.636V6.251H99.0639V21.447C99.0639 22.085 99.2089 22.5103 99.4989 22.723C99.7889 22.9357 100.127 23.042 100.514 23.042V25.913C100.282 25.9903 100.011 26.0483 99.7019 26.087C99.4119 26.1257 99.1122 26.145 98.8029 26.145ZM105.991 26H102.627V11.848H105.991V26ZM102.192 7.44C102.192 6.82133 102.376 6.31867 102.743 5.932C103.13 5.526 103.652 5.323 104.309 5.323C104.928 5.323 105.431 5.526 105.817 5.932C106.204 6.31867 106.397 6.82133 106.397 7.44C106.397 8.05867 106.204 8.56133 105.817 8.948C105.431 9.33467 104.928 9.528 104.309 9.528C103.652 9.528 103.13 9.33467 102.743 8.948C102.376 8.56133 102.192 8.05867 102.192 7.44ZM117.25 11.529C118.256 11.529 119.048 11.6933 119.628 12.022C120.208 12.3507 120.643 12.805 120.933 13.385C121.223 13.9457 121.407 14.5837 121.484 15.299C121.581 15.995 121.629 16.72 121.629 17.474V26H118.265V17.184C118.265 16.2367 118.062 15.6083 117.656 15.299C117.27 14.9703 116.786 14.806 116.206 14.806C115.665 14.806 115.104 14.922 114.524 15.154C113.964 15.3667 113.451 15.6663 112.987 16.053C112.523 16.4203 112.146 16.8457 111.856 17.329L111.595 15.502H112.32V26H108.956V11.848H111.479L112.175 14.429L111.189 14.458C111.731 13.8587 112.32 13.3463 112.958 12.921C113.596 12.4763 114.273 12.138 114.988 11.906C115.723 11.6547 116.477 11.529 117.25 11.529ZM130.355 26.29C128.963 26.29 127.745 25.9903 126.701 25.391C125.657 24.7723 124.835 23.912 124.236 22.81C123.656 21.708 123.366 20.4223 123.366 18.953C123.366 17.4643 123.656 16.169 124.236 15.067C124.835 13.9457 125.657 13.0757 126.701 12.457C127.745 11.8383 128.963 11.529 130.355 11.529C131.766 11.529 132.994 11.848 134.038 12.486C135.101 13.1047 135.923 13.9747 136.503 15.096C137.083 16.198 137.373 17.474 137.373 18.924C137.373 19.098 137.363 19.272 137.344 19.446C137.344 19.62 137.334 19.7747 137.315 19.91H126.324V17.213H134.821L134.125 18.75C134.125 17.416 133.815 16.3237 133.197 15.473C132.578 14.6223 131.64 14.197 130.384 14.197C129.243 14.197 128.334 14.5547 127.658 15.27C127 15.966 126.672 16.894 126.672 18.054V19.591C126.672 20.7897 127 21.7467 127.658 22.462C128.334 23.158 129.262 23.506 130.442 23.506C131.505 23.506 132.327 23.2837 132.907 22.839C133.506 22.3943 134.018 21.8433 134.444 21.186L136.851 22.636C136.213 23.8347 135.362 24.7433 134.299 25.362C133.235 25.9807 131.921 26.29 130.355 26.29ZM147.437 26.319C145.871 26.319 144.508 26.0193 143.348 25.42C142.188 24.8207 141.279 23.9217 140.622 22.723C139.984 21.5243 139.665 20.055 139.665 18.315V6.251H143.029V18.054C143.029 19.6393 143.406 20.8767 144.16 21.766C144.933 22.636 146.025 23.071 147.437 23.071C148.887 23.071 149.989 22.636 150.743 21.766C151.497 20.8767 151.874 19.6393 151.874 18.054V6.251H155.238V18.315C155.238 20.055 154.909 21.5243 154.252 22.723C153.614 23.9217 152.715 24.8207 151.555 25.42C150.395 26.0193 149.022 26.319 147.437 26.319ZM162.304 26H158.94V6.251H162.304V26Z" fill="black"/>
<path d="M20.089 25.7777V23.889H17.111C16.4999 23.889 15.9768 23.6713 15.5417 23.236C15.1065 22.8009 14.889 22.2778 14.889 21.6667V10.3333H11.9333V12.3333C11.9333 12.9444 11.7158 13.4676 11.2807 13.9027C10.8453 14.338 10.3221 14.5557 9.71099 14.5557H4.88899C4.27788 14.5557 3.75466 14.338 3.31932 13.9027C2.88421 13.4676 2.66666 12.9444 2.66666 12.3333V6.22233C2.66666 5.61122 2.88421 5.088 3.31932 4.65267C3.75466 4.21756 4.27788 4 4.88899 4H9.71099C10.3221 4 10.8453 4.21756 11.2807 4.65267C11.7158 5.088 11.9333 5.61122 11.9333 6.22233V8.111H20.089V6.22233C20.089 5.61122 20.3065 5.088 20.7417 4.65267C21.1768 4.21756 21.6999 4 22.311 4H27.111C27.7221 4 28.2453 4.21756 28.6807 4.65267C29.1158 5.088 29.3333 5.61122 29.3333 6.22233V12.3333C29.3333 12.9444 29.1158 13.4676 28.6807 13.9027C28.2453 14.338 27.7221 14.5557 27.111 14.5557H22.311C21.6999 14.5557 21.1768 14.338 20.7417 13.9027C20.3065 13.4676 20.089 12.9444 20.089 12.3333V10.3333H17.111V21.6667H20.089V19.6667C20.089 19.0556 20.3065 18.5324 20.7417 18.0973C21.1768 17.662 21.6999 17.4443 22.311 17.4443H27.111C27.7221 17.4443 28.2453 17.662 28.6807 18.0973C29.1158 18.5324 29.3333 19.0556 29.3333 19.6667V25.7777C29.3333 26.3888 29.1158 26.912 28.6807 27.3473C28.2453 27.7824 27.7221 28 27.111 28H22.311C21.6999 28 21.1768 27.7824 20.7417 27.3473C20.3065 26.912 20.089 26.3888 20.089 25.7777ZM22.311 12.3333H27.111V6.22233H22.311V12.3333ZM22.311 25.7777H27.111V19.6667H22.311V25.7777ZM4.88899 12.3333H9.71099V6.22233H4.88899V12.3333Z" fill="black"/>
</g>
<defs>
<clipPath id="clip0_1_2">
<rect width="169" height="32" fill="white"/>
</clipPath>
</defs>
</svg>
